<?xml version="1.0" standalone="no"?>
<!DOCTYPE svg PUBLIC "-//W3C//DTD SVG 20010904//EN"
 "http://www.w3.org/TR/2001/REC-SVG-20010904/DTD/svg10.dtd">
<svg version="1.0" xmlns="http://www.w3.org/2000/svg"
 width="1536.000000pt" height="1024.000000pt" viewBox="0 0 1536.000000 1024.000000"
 preserveAspectRatio="xMidYMid meet">

<g transform="translate(0.000000,1024.000000) scale(0.100000,-0.100000)"
fill="#000000" stroke="none">
<path d="M10160 7643 c-379 -24 -690 -105 -989 -258 -224 -114 -414 -256 -586
-436 -112 -118 -257 -303 -244 -312 2 -2 83 -33 179 -69 l175 -66 0 -39 c0
-21 -4 -67 -8 -103 l-7 -65 211 -90 c116 -49 216 -90 221 -90 5 0 21 27 34 60
125 307 364 547 670 670 378 153 876 134 1372 -52 52 -19 97 -31 102 -27 4 5
40 86 80 179 40 94 81 190 92 215 12 25 40 91 63 147 l43 101 -82 31 c-317
119 -636 188 -916 196 -300 10 -365 11 -410 8z"/>
<path d="M5202 7513 c-28 -71 -87 -218 -132 -328 -45 -110 -137 -337 -205
-505 -68 -168 -140 -345 -160 -395 -20 -49 -93 -229 -162 -400 -138 -342 -369
-913 -633 -1565 -303 -747 -390 -963 -390 -967 0 -1 267 -3 594 -3 l594 0 15
37 c21 53 429 1120 632 1653 54 140 130 341 170 445 40 105 121 316 180 470
58 154 180 471 270 705 172 449 281 735 338 888 l35 92 -548 0 -548 0 -50
-127z"/>
<path d="M6365 7433 c-36 -115 -88 -272 -116 -351 -27 -79 -49 -152 -49 -163
0 -10 37 -112 83 -226 46 -115 119 -303 163 -419 l79 -210 210 97 c430 198
500 231 508 238 4 4 -56 165 -134 357 -78 192 -157 387 -175 434 -19 47 -67
166 -107 265 l-74 180 -161 3 -161 2 -66 -207z"/>
<path d="M8074 6393 c-24 -4 -14 21 -198 -515 -167 -484 -282 -816 -361 -1043
-42 -121 -114 -327 -159 -457 l-83 -238 193 0 192 0 10 28 c57 160 219 618
337 957 80 231 187 535 236 675 162 458 206 589 201 595 -6 6 -336 4 -368 -2z"/>
<path d="M7185 6102 c-61 -31 -301 -144 -850 -402 l-420 -197 -3 -160 -2 -160
122 -53 c239 -102 865 -373 1007 -436 79 -35 145 -63 147 -61 5 5 43 260 45
310 l3 49 -209 89 c-116 49 -241 102 -280 118 -256 107 -345 146 -345 151 0 5
290 140 682 319 l167 76 1 187 c0 103 -3 189 -7 191 -5 3 -30 -7 -58 -21z"/>
<path d="M8600 5906 l0 -185 58 -26 c442 -201 782 -360 782 -365 0 -6 -736
-323 -832 -359 l-28 -11 0 -194 0 -195 68 30 c37 17 159 70 272 119 113 48
349 151 525 227 176 77 357 155 402 174 l82 34 1 158 0 157 -52 24 c-54 24
-284 132 -653 309 -200 95 -615 287 -622 287 -2 0 -3 -83 -3 -184z"/>
<path d="M8065 4663 c-24 -78 -140 -444 -214 -673 l-28 -85 -131 -3 c-73 -1
-132 -4 -132 -7 0 -2 44 -98 98 -212 55 -114 111 -236 127 -270 l28 -63 504 0
504 0 -65 123 c-69 132 -515 996 -602 1166 -29 57 -55 106 -58 108 -2 3 -16
-35 -31 -84z"/>
<path d="M9230 4583 c-135 -58 -431 -185 -537 -230 -46 -19 -83 -39 -83 -45 0
-13 90 -143 130 -188 360 -402 780 -638 1310 -734 496 -90 1124 -7 1623 214
l46 20 -14 38 c-12 35 -62 153 -207 488 l-60 141 -80 -33 c-170 -72 -401 -132
-598 -155 -128 -14 -423 -7 -564 15 -125 20 -317 84 -422 141 -147 81 -289
198 -381 318 -24 31 -47 57 -51 56 -4 0 -54 -21 -112 -46z"/>
</g>
</svg>
