<?xml version="1.0" standalone="no"?>
<!DOCTYPE svg PUBLIC "-//W3C//DTD SVG 20010904//EN"
 "http://www.w3.org/TR/2001/REC-SVG-20010904/DTD/svg10.dtd">
<svg version="1.0" xmlns="http://www.w3.org/2000/svg"
 width="1080.000000pt" height="1080.000000pt" viewBox="0 0 1080.000000 1080.000000"
 preserveAspectRatio="xMidYMid meet">

<g transform="translate(0.000000,1080.000000) scale(0.100000,-0.100000)"
fill="#000000" stroke="none">
<path d="M4245 6449 c-146 -21 -284 -67 -393 -131 -73 -43 -237 -207 -280
-280 -206 -350 -227 -868 -52 -1233 176 -368 541 -555 1003 -515 379 32 640
199 793 505 155 312 166 739 26 1088 -126 317 -401 522 -757 566 -103 12 -252
13 -340 0z m343 -374 c274 -65 428 -349 409 -758 -7 -154 -28 -250 -78 -353
-96 -197 -250 -300 -464 -311 -294 -16 -509 154 -587 462 -33 130 -32 389 0
520 32 129 90 243 160 314 100 102 201 139 382 140 69 0 140 -5 178 -14z"/>
<path d="M5570 6418 c0 -7 108 -317 240 -688 133 -371 300 -840 372 -1042
l131 -368 227 0 228 0 10 28 c268 746 742 2073 742 2077 0 3 -100 4 -221 3
-185 -3 -223 -6 -230 -18 -5 -8 -122 -359 -260 -780 l-252 -765 -19 55 c-10
30 -130 381 -266 780 l-247 725 -228 3 c-179 2 -227 0 -227 -10z"/>
</g>
</svg>
